<svg xmlns="http://www.w3.org/2000/svg" version="1.1" xmlns:xlink="http://www.w3.org/1999/xlink" xmlns:svgjs="http://svgjs.dev/svgjs" width="1000" height="750" viewBox="0 0 1000 750"><rect width="1000" height="750" fill="#ffffff"></rect><g transform="matrix(0.5191111111111111,0,0,0.5191111111111111,240.4444444444445,83)"><svg viewBox="0 0 320 360" data-background-color="#ffffff" preserveAspectRatio="xMidYMid meet" height="1125" width="1000" xmlns="http://www.w3.org/2000/svg" xmlns:xlink="http://www.w3.org/1999/xlink"><g id="tight-bounds" transform="matrix(1,0,0,1,0,0)"><svg viewBox="0 0 320 360" height="360" width="320"><g><svg></svg></g><g><svg viewBox="0 0 320 360" height="360" width="320"><g><path xmlns="http://www.w3.org/2000/svg" d="M20.961 227.22l3.726 4.658-1.863-6.056c-0.466-2.795-3.726 0.466-1.863 1.398M25.153 224.425c1.397 2.329 2.795 4.658 2.795 6.987 0 3.261 2.795 4.658 5.123 5.589-3.261-3.726-5.124-13.974-7.918-12.576M204.017 26.929c7.918 0 15.371-0.932 23.756 0.931 20.495 5.124 37.729 15.371 49.374 29.811l32.606 52.169c1.397 13.042 4.192 27.482 3.726 43.319 3.261 0 2.795-4.658 6.521-5.59-3.726 9.316-5.59 20.961-6.521 34.469-2.329-7.453 0-18.632 0.466-24.687-3.261 5.124-5.124 1.397-5.124-0.932 0.466-3.726-1.397-3.261-2.795-4.658-5.124-4.658-8.384-9.782-12.11-17.7 2.329-6.055 2.795-14.905-4.658-19.563-2.329-1.397-5.124-3.726-6.521-7.453-1.863-5.124-5.124-11.179-4.193-19.097 0.466-2.329-6.987 5.124-11.179 1.863-18.166-12.576-36.332-27.016-58.224-39.127-11.645 0-20.029-4.192-24.221-9.316-3.726-4.658-0.932-10.713 4.658-11.179 3.261 0 6.987-0.932 9.782 0.932 0.466-1.863 2.329-4.192 4.657-4.192M157.904 16.215l0.932 0.466c4.658 0.932 6.987 7.453 12.11 5.124 0 3.261 0.466 6.521-0.466 8.85-1.397 3.726-5.59 3.726-8.85 3.726-31.208-1.863-49.374 11.179-68.471 22.358-5.124 3.261-10.713 5.59-14.906 9.782-20.029 18.632-41.921 35.866-47.045 70.335l-4.192 38.195c-0.466 4.192-5.124 8.384-4.192 13.508l3.26 22.824c-3.261-3.261-5.124 0.932-4.192 2.795 0.466 1.397 2.329 6.055 5.124 1.863 3.726 6.987 7.453 20.495 12.576 26.55 15.837 18.632 36.332 35.4 53.101 52.169 4.192-0.932 7.453-0.932 8.384-3.727 1.397 2.795-1.397 5.59-3.726 6.056 7.453 4.658 15.837 8.85 27.016 9.781 14.44 0.932 27.948 3.261 40.524 6.522 6.521-1.863 13.042-2.795 20.029-3.261 2.329 0 3.726-3.726 6.521-4.658l0.466-4.658c2.795 4.192 2.329-1.397 0.466-4.192 3.261 2.795 4.192 5.124 5.589 6.987 0-1.397 3.726-6.521 3.727-0.466l0.931-6.055c1.397-0.932 1.863 5.124 3.261 0.931 1.397-4.192 4.192-0.932 6.987-2.329-0.932 1.863-0.466 5.59 2.794 3.261l3.727-3.261c2.329 5.59 6.055 3.261 7.918 2.329 20.495-13.042 40.99-28.413 60.553-43.784l-0.466 6.055 2.329-7.453c2.329 2.329 4.192 0.466 5.124-0.931 2.795-4.658 6.521-9.316 12.577-13.508-7.453 20.029-16.303 35.866-27.482 48.908l-4.658 5.59c0 3.261-0.932 7.453-4.658 7.918-1.863 0.466-5.59-0.932-8.384 1.863-1.397 1.863 3.261 5.59-0.466 2.795-3.261-2.329-6.521 0-10.248 0.932-2.795 0.932 1.863 3.726 2.795 5.589 0.932 1.863 1.863 3.726 1.398 6.056l-5.124-5.59c-6.055 3.261-9.782 9.316-14.906 13.974-2.329 1.863-1.397 5.124-1.397 7.918-3.261 0-6.987-0.932-8.85 0.932-1.397 1.863-0.932 4.658-0.932 7.453-4.658-0.466-5.124-7.453-9.315-6.056-4.192 0.932-8.85 1.397-12.577 3.727 2.795 5.59-4.658 2.329-3.726 3.26-6.987-4.192-13.042-7.453-20.495-4.658-15.837-5.124-35.4-2.795-49.84-0.931 0-2.329 0.466-4.658-0.466-5.124-0.932 2.329-3.726 1.397-3.26 1.397-8.85-6.055-17.7-9.782-27.016-14.905-8.384 0.932-16.303-3.261-18.632-5.59-6.521-6.055-13.974-2.795-20.029-4.192-13.042-3.261-17.7-16.769-19.098-26.084-0.932-4.658-4.658-6.521-6.055-6.056-6.055-19.563-15.371-37.263-22.824-55.429-1.863-4.658-1.397-9.316-1.397-14.44 2.329 0.932 4.658 0.466 4.192-2.794-2.329-15.371-7.918-27.016-13.974-38.195 3.261-15.837 3.726-34.469 11.179-48.443 6.521-12.576 18.632-19.098 27.016-29.811 2.795-3.726 2.795-8.85 5.59-12.11 9.316-9.316 18.632-19.098 28.879-27.482 4.658-3.726 10.247 0 17.234-1.397 2.329-8.384 11.645-15.837 20.495-13.508 3.726 0.932 11.179-8.85 13.508-9.782 3.726-1.397 1.863 3.726 1.863 6.987 8.85-6.987 20.961-10.713 32.14-14.906" fill="#35185a" fill-rule="nonzero" stroke="none" stroke-width="1" stroke-linecap="butt" stroke-linejoin="miter" stroke-miterlimit="10" stroke-dasharray="" stroke-dashoffset="0" font-family="none" font-weight="none" font-size="none" text-anchor="none" style="mix-blend-mode: normal" data-fill-palette-color="tertiary"></path></g><g transform="matrix(1,0,0,1,64,162.4482929242949)"><svg viewBox="0 0 192 35.10341415141019" height="35.10341415141019" width="192"><g><svg viewBox="0 0 192 35.10341415141019" height="35.10341415141019" width="192"><g><svg viewBox="0 0 192 35.10341415141019" height="35.10341415141019" width="192"><g><svg viewBox="0 0 192 35.10341415141019" height="35.10341415141019" width="192"><g><svg viewBox="0 0 192 35.10341415141019" height="35.10341415141019" width="192"><g><svg viewBox="0 0 192 35.10341415141019" height="35.10341415141019" width="192"><g transform="matrix(1,0,0,1,0,0)"><svg width="192" viewBox="3.549999952316284 -36.54999923706055 202.0800018310547 36.95000076293945" height="35.10341415141019" data-palette-color="#35185a"><path d="M5.65 0L5.65 0Q4.9 0 4.23-0.38 3.55-0.75 3.55-1.5L3.55-1.5 3.55-35.1Q3.55-35.85 4.23-36.2 4.9-36.55 5.65-36.55L5.65-36.55Q6.45-36.55 7.1-36.2 7.75-35.85 7.75-35.1L7.75-35.1 7.75-18.55 21.2-35.95Q21.65-36.55 22.45-36.55L22.45-36.55Q23-36.55 23.55-36.23 24.1-35.9 24.45-35.43 24.8-34.95 24.8-34.4L24.8-34.4Q24.8-34.2 24.75-33.95 24.7-33.7 24.5-33.5L24.5-33.5 14.3-20.75 26.15-2.75Q26.4-2.4 26.4-2L26.4-2Q26.4-1.45 26.05-0.98 25.7-0.5 25.15-0.2 24.6 0.1 23.95 0.1L23.95 0.1Q23.55 0.1 23.15-0.1 22.75-0.3 22.45-0.75L22.45-0.75 11.5-17.2 7.75-12.55 7.75-1.5Q7.75-0.75 7.1-0.38 6.45 0 5.65 0ZM38.1 0.4L38.1 0.4Q35.45 0.4 33.2-0.98 30.95-2.35 29.6-4.55 28.25-6.75 28.25-9.3L28.25-9.3 28.25-14.4Q28.25-16.95 29.57-19.13 30.9-21.3 33.15-22.65 35.4-24 38.1-24L38.1-24Q40.75-24 43-22.68 45.25-21.35 46.62-19.2 48-17.05 48-14.4L48-14.4 48-9.3Q48-6.8 46.62-4.58 45.25-2.35 43-0.98 40.75 0.4 38.1 0.4ZM38.1-3.35L38.1-3.35Q39.7-3.35 40.97-4.2 42.25-5.05 43.05-6.43 43.85-7.8 43.85-9.3L43.85-9.3 43.85-14.4Q43.85-15.85 43.07-17.2 42.3-18.55 41-19.4 39.7-20.25 38.1-20.25L38.1-20.25Q36.5-20.25 35.2-19.4 33.9-18.55 33.15-17.2 32.4-15.85 32.4-14.4L32.4-14.4 32.4-9.3Q32.4-7.8 33.15-6.43 33.9-5.05 35.2-4.2 36.5-3.35 38.1-3.35ZM55.05 0L55.05 0Q54.15 0 53.57-0.48 53-0.95 53-1.5L53-1.5 53-22.25Q53-22.9 53.57-23.3 54.15-23.7 55.05-23.7L55.05-23.7Q55.84-23.7 56.4-23.3 56.95-22.9 56.95-22.25L56.95-22.25 56.95-20.2Q57.75-21.65 59.45-22.83 61.15-24 63.65-24L63.65-24Q66.05-24 68.05-22.68 70.05-21.35 71.25-19.2 72.45-17.05 72.45-14.4L72.45-14.4 72.45-1.5Q72.45-0.75 71.8-0.38 71.15 0 70.34 0L70.34 0Q69.59 0 68.95-0.38 68.3-0.75 68.3-1.5L68.3-1.5 68.3-14.4Q68.3-15.85 67.52-17.2 66.75-18.55 65.45-19.4 64.15-20.25 62.59-20.25L62.59-20.25Q61.25-20.25 60-19.53 58.75-18.8 57.95-17.53 57.15-16.25 57.15-14.4L57.15-14.4 57.15-1.5Q57.15-0.95 56.52-0.48 55.9 0 55.05 0ZM84.89 0.4L84.89 0.4Q82.49 0.4 80.64-0.23 78.79-0.85 77.74-1.7 76.69-2.55 76.69-3.4L76.69-3.4Q76.69-3.8 76.89-4.23 77.09-4.65 77.42-4.98 77.74-5.3 78.14-5.3L78.14-5.3Q78.74-5.3 79.44-4.73 80.14-4.15 81.34-3.55 82.54-2.95 84.79-2.95L84.79-2.95Q87.44-2.95 88.49-3.93 89.54-4.9 89.54-6.1L89.54-6.1Q89.54-7.65 88.64-8.47 87.74-9.3 86.34-9.78 84.94-10.25 83.39-10.7 81.84-11.15 80.44-11.83 79.04-12.5 78.17-13.73 77.29-14.95 77.29-17L77.29-17Q77.29-18.65 78.09-20.25 78.89-21.85 80.69-22.93 82.49-24 85.49-24L85.49-24Q87.24-24 88.87-23.63 90.49-23.25 91.52-22.63 92.54-22 92.54-21.3L92.54-21.3Q92.54-21 92.34-20.5 92.14-20 91.79-19.6 91.44-19.2 90.89-19.2L90.89-19.2Q90.49-19.2 89.77-19.58 89.04-19.95 88.02-20.3 86.99-20.65 85.54-20.65L85.54-20.65Q83.89-20.65 82.89-20.08 81.89-19.5 81.44-18.73 80.99-17.95 80.99-17.15L80.99-17.15Q80.99-15.9 81.87-15.2 82.74-14.5 84.17-14.08 85.59-13.65 87.14-13.23 88.69-12.8 90.09-12.03 91.49-11.25 92.39-9.9 93.29-8.55 93.29-6.3L93.29-6.3Q93.29-3.25 91.09-1.43 88.89 0.4 84.89 0.4ZM107.59 0L106.04 0Q101.99 0 99.87-1.8 97.74-3.6 97.74-7.55L97.74-7.55 97.74-33.3Q97.74-33.95 98.39-34.35 99.04-34.75 99.79-34.75L99.79-34.75Q100.59-34.75 101.24-34.35 101.89-33.95 101.89-33.3L101.89-33.3 101.89-23.7 108.19-23.7Q108.79-23.7 109.12-23.2 109.44-22.7 109.44-22.05L109.44-22.05Q109.44-21.4 109.12-20.93 108.79-20.45 108.19-20.45L108.19-20.45 101.89-20.45 101.89-7.55Q101.89-5.4 102.82-4.53 103.74-3.65 106.04-3.65L106.04-3.65 107.59-3.65Q108.49-3.65 108.94-3.1 109.39-2.55 109.39-1.85L109.39-1.85Q109.39-1.15 108.94-0.58 108.49 0 107.59 0L107.59 0ZM118.49 0.4L118.49 0.4Q115.69 0.4 113.71-1.23 111.74-2.85 111.74-6.25L111.74-6.25Q111.74-9 113.24-10.53 114.74-12.05 117.36-12.63 119.99-13.2 123.44-13.2L123.44-13.2 125.84-13.2 125.84-14.25Q125.84-15.75 125.29-17.18 124.74-18.6 123.56-19.53 122.39-20.45 120.34-20.45L120.34-20.45Q118.59-20.45 117.56-20.1 116.54-19.75 115.94-19.38 115.34-19 114.89-19L114.89-19Q114.14-19 113.74-19.73 113.34-20.45 113.34-21.1L113.34-21.1Q113.34-21.9 114.44-22.55 115.54-23.2 117.19-23.6 118.84-24 120.44-24L120.44-24Q123.94-24 126.04-22.6 128.14-21.2 129.06-19 129.99-16.8 129.99-14.3L129.99-14.3 129.99-1.5Q129.99-0.9 129.41-0.45 128.84 0 127.94 0L127.94 0Q127.14 0 126.59-0.45 126.04-0.9 126.04-1.5L126.04-1.5 126.04-3.5Q124.74-2 122.89-0.8 121.04 0.4 118.49 0.4ZM119.79-2.95L119.79-2.95Q121.24-2.95 122.61-3.75 123.99-4.55 124.91-5.75 125.84-6.95 125.84-8.05L125.84-8.05 125.84-10.65 124.09-10.65Q121.99-10.65 120.11-10.4 118.24-10.15 117.09-9.33 115.94-8.5 115.94-6.7L115.94-6.7Q115.94-4.75 117.04-3.85 118.14-2.95 119.79-2.95ZM137.69 0L137.69 0Q136.79 0 136.21-0.48 135.64-0.95 135.64-1.5L135.64-1.5 135.64-22.25Q135.64-22.9 136.21-23.3 136.79-23.7 137.69-23.7L137.69-23.7Q138.49-23.7 139.04-23.3 139.59-22.9 139.59-22.25L139.59-22.25 139.59-20.2Q140.39-21.65 142.09-22.83 143.79-24 146.29-24L146.29-24Q148.69-24 150.69-22.68 152.69-21.35 153.89-19.2 155.09-17.05 155.09-14.4L155.09-14.4 155.09-1.5Q155.09-0.75 154.44-0.38 153.79 0 152.99 0L152.99 0Q152.24 0 151.59-0.38 150.94-0.75 150.94-1.5L150.94-1.5 150.94-14.4Q150.94-15.85 150.16-17.2 149.39-18.55 148.09-19.4 146.79-20.25 145.24-20.25L145.24-20.25Q143.89-20.25 142.64-19.53 141.39-18.8 140.59-17.53 139.79-16.25 139.79-14.4L139.79-14.4 139.79-1.5Q139.79-0.95 139.16-0.48 138.54 0 137.69 0ZM170.48 0L168.93 0Q164.88 0 162.76-1.8 160.63-3.6 160.63-7.55L160.63-7.55 160.63-33.3Q160.63-33.95 161.28-34.35 161.93-34.75 162.68-34.75L162.68-34.75Q163.48-34.75 164.13-34.35 164.78-33.95 164.78-33.3L164.78-33.3 164.78-23.7 171.08-23.7Q171.68-23.7 172.01-23.2 172.33-22.7 172.33-22.05L172.33-22.05Q172.33-21.4 172.01-20.93 171.68-20.45 171.08-20.45L171.08-20.45 164.78-20.45 164.78-7.55Q164.78-5.4 165.71-4.53 166.63-3.65 168.93-3.65L168.93-3.65 170.48-3.65Q171.38-3.65 171.83-3.1 172.28-2.55 172.28-1.85L172.28-1.85Q172.28-1.15 171.83-0.58 171.38 0 170.48 0L170.48 0ZM178.23 0L178.23 0Q177.33 0 176.76-0.48 176.18-0.95 176.18-1.5L176.18-1.5 176.18-22.25Q176.18-22.9 176.76-23.3 177.33-23.7 178.23-23.7L178.23-23.7Q179.08-23.7 179.71-23.3 180.33-22.9 180.33-22.25L180.33-22.25 180.33-1.5Q180.33-0.95 179.71-0.48 179.08 0 178.23 0ZM178.23-30.2L178.23-30.2Q177.13-30.2 176.38-30.93 175.63-31.65 175.63-32.6L175.63-32.6Q175.63-33.55 176.38-34.25 177.13-34.95 178.23-34.95L178.23-34.95Q179.28-34.95 180.03-34.25 180.78-33.55 180.78-32.6L180.78-32.6Q180.78-31.65 180.03-30.93 179.28-30.2 178.23-30.2ZM188.23 0L188.23 0Q187.33 0 186.75-0.48 186.18-0.95 186.18-1.5L186.18-1.5 186.18-22.25Q186.18-22.9 186.75-23.3 187.33-23.7 188.23-23.7L188.23-23.7Q189.03-23.7 189.58-23.3 190.13-22.9 190.13-22.25L190.13-22.25 190.13-20.2Q190.93-21.65 192.63-22.83 194.33-24 196.83-24L196.83-24Q199.23-24 201.23-22.68 203.23-21.35 204.43-19.2 205.63-17.05 205.63-14.4L205.63-14.4 205.63-1.5Q205.63-0.75 204.98-0.38 204.33 0 203.53 0L203.53 0Q202.78 0 202.13-0.38 201.48-0.75 201.48-1.5L201.48-1.5 201.48-14.4Q201.48-15.85 200.7-17.2 199.93-18.55 198.63-19.4 197.33-20.25 195.78-20.25L195.78-20.25Q194.43-20.25 193.18-19.53 191.93-18.8 191.13-17.53 190.33-16.25 190.33-14.4L190.33-14.4 190.33-1.5Q190.33-0.95 189.7-0.48 189.08 0 188.23 0Z" opacity="1" transform="matrix(1,0,0,1,0,0)" fill="#35185a" class="undefined-text-0" data-fill-palette-color="primary" id="text-0"></path></svg></g></svg></g></svg></g></svg></g><g></g></svg></g></svg></g></svg></g></svg></g><defs></defs></svg><rect width="320" height="360" fill="none" stroke="none" visibility="hidden"></rect></g></svg></g></svg>